<?xml version="1.0" encoding="UTF-8" standalone="no"?>
<!DOCTYPE svg PUBLIC "-//W3C//DTD SVG 1.1//EN" "http://www.w3.org/Graphics/SVG/1.1/DTD/svg11.dtd">
<!-- Created with Vectornator (http://vectornator.io/) -->
<svg height="100%" stroke-miterlimit="10" style="fill-rule:nonzero;clip-rule:evenodd;stroke-linecap:round;stroke-linejoin:round;" version="1.1" viewBox="0 0 7680 4320" width="100%" xml:space="preserve" xmlns="http://www.w3.org/2000/svg" xmlns:vectornator="http://vectornator.io" xmlns:xlink="http://www.w3.org/1999/xlink">
<defs>
<linearGradient gradientTransform="matrix(2.28667 0.0280636 -0.0280239 2.08305 -3029.32 -2339.38)" gradientUnits="userSpaceOnUse" id="LinearGradient" x1="2783.09" x2="4695.03" y1="2344.25" y2="2344.25">
<stop offset="0" stop-color="#070731"/>
<stop offset="0.0900603" stop-color="#000000"/>
</linearGradient>
<linearGradient gradientTransform="matrix(1 0 0 1 3307.2 -3563.03)" gradientUnits="userSpaceOnUse" id="LinearGradient_2" x1="2453.25" x2="3836.95" y1="2039.07" y2="1979.98">
<stop offset="0" stop-color="#070731"/>
<stop offset="0.0900603" stop-color="#000000"/>
</linearGradient>
<linearGradient gradientTransform="matrix(1 0 0 1 3307.2 -3563.03)" gradientUnits="userSpaceOnUse" id="LinearGradient_3" x1="2453.25" x2="3836.95" y1="2039.07" y2="1979.98">
<stop offset="0" stop-color="#070731"/>
<stop offset="0.0900603" stop-color="#000000"/>
</linearGradient>
<linearGradient gradientTransform="matrix(1 0 0 1 3307.2 -3563.03)" gradientUnits="userSpaceOnUse" id="LinearGradient_4" x1="2453.25" x2="3836.95" y1="2039.07" y2="1979.98">
<stop offset="0" stop-color="#070731"/>
<stop offset="0.0900603" stop-color="#000000"/>
</linearGradient>
</defs>
<clipPath id="ArtboardFrame">
<rect height="4320" width="7680" x="0" y="0"/>
</clipPath>
<g clip-path="url(#ArtboardFrame)" id="Layer-1" vectornator:layerName="Layer 1">
<path d="M2690.95 24.6173L4065.06 2169.7L5439.21 4314.82L2696.69 4317.83L-45.8258 4320.8L1322.58 2172.71L2690.95 24.6173Z" fill="#141414" fill-opacity="0.420385" fill-rule="nonzero" opacity="1" stroke="none"/>
<path d="M5432.55 4316.37L4362.01 2635.33L3291.43 954.299L5477.41 981.148L7663.44 1007.96L6547.99 2662.18L5432.55 4316.37Z" fill="url(#LinearGradient)" fill-rule="nonzero" opacity="1" stroke="#141414" stroke-linecap="round" stroke-linejoin="round" stroke-width="19"/>
<g opacity="1">
<g opacity="1">
<g opacity="1">
<clipPath id="ClipPath">
<path d="M5771.85-2099.99L7140.81-2099.99L7140.81-2099.99L7140.81-1132.73L7140.81-1132.73L5771.85-1132.73L5771.85-1132.73L5771.85-2099.99L5771.85-2099.99Z"/>
</clipPath>
<g clip-path="url(#ClipPath)">
<path d="M5795.41-2009.22L6308.76-2009.22L6308.76-1950.67L6085.6-1950.67L6085.6-1343.99L6019.42-1343.99L6019.42-1950.67L5795.41-1950.67L5795.41-2009.22Z" fill="url(#LinearGradient_2)" fill-rule="nonzero" opacity="1" stroke="none"/>
</g>
</g>
<g opacity="1">
<clipPath id="ClipPath_2">
<path d="M5771.85-2099.99L7140.81-2099.99L7140.81-2099.99L7140.81-1132.73L7140.81-1132.73L5771.85-1132.73L5771.85-1132.73L5771.85-2099.99L5771.85-2099.99Z"/>
</clipPath>
<g clip-path="url(#ClipPath_2)">
<path d="M6771.19-1589.21L6425.85-1589.21C6425.85-1524.16 6440.98-1474.52 6471.24-1440.3C6501.51-1406.07 6541.24-1388.96 6590.46-1388.96C6627.79-1388.96 6663.71-1400.84 6698.22-1424.6C6707.83-1430.82 6718.02-1438.6 6728.76-1447.93C6739.51-1457.27 6751.11-1468.16 6763.55-1480.6L6763.55-1406.78C6749.98-1396.6 6737.39-1387.69 6725.79-1380.05C6714.2-1372.42 6703.31-1366.05 6693.13-1360.96C6657.49-1342.29 6621.85-1332.96 6586.22-1332.96C6524.56-1332.96 6472.23-1354.17 6429.24-1396.6C6382.86-1441.29 6359.67-1499.27 6359.67-1570.54C6359.67-1637.86 6380.6-1694.14 6422.45-1739.39C6464.88-1785.21 6517.2-1808.12 6579.43-1808.12C6639.95-1808.12 6688.04-1786.06 6723.67-1741.94C6755.35-1701.78 6771.19-1650.87 6771.19-1589.21ZM6434.33-1640.97L6699.91-1640.97C6693.13-1679.43 6678.56-1708.14 6656.22-1727.09C6633.87-1746.04 6606.86-1755.51 6575.18-1755.51C6540.11-1755.51 6510.42-1744.48 6486.09-1722.42C6463.47-1702.06 6446.21-1674.91 6434.33-1640.97Z" fill="url(#LinearGradient_3)" fill-rule="nonzero" opacity="1" stroke="none"/>
</g>
</g>
<g opacity="1">
<clipPath id="ClipPath_3">
<path d="M5771.85-2099.99L7140.81-2099.99L7140.81-2099.99L7140.81-1132.73L7140.81-1132.73L5771.85-1132.73L5771.85-1132.73L5771.85-2099.99L5771.85-2099.99Z"/>
</clipPath>
<g clip-path="url(#ClipPath_3)">
<path d="M6891.68-1932L6947.68-1932L6947.68-1798.79L7067.31-1798.79L7067.31-1743.64L6947.68-1743.64L6947.68-1455.15C6947.68-1431.39 6952.06-1414.42 6960.83-1404.24C6969.6-1394.05 6984.73-1388.96 7006.22-1388.96C7018.67-1388.96 7029.27-1390.38 7038.04-1393.2C7046.81-1396.03 7056.57-1399.71 7067.31-1404.24L7067.31-1349.08C7058.26-1346.25 7047.37-1343.57 7034.65-1341.02C7021.92-1338.48 7009.05-1337.2 6996.04-1337.2C6962.1-1337.2 6935.8-1344.84 6917.13-1360.11C6896.2-1375.95 6885.74-1401.41 6885.74-1436.48L6885.74-1743.64L6809.37-1743.64L6809.37-1798.79L6885.74-1798.79L6891.68-1932Z" fill="url(#LinearGradient_4)" fill-rule="nonzero" opacity="1" stroke="none"/>
</g>
</g>
</g>
<g opacity="1">
<g opacity="1">
<clipPath id="ClipPath_4">
<path d="M7098.23-2107.47L9186.97-2107.47L9186.97-2107.47L9186.97-1125.25L9186.97-1125.25L7098.23-1125.25L7098.23-1125.25L7098.23-2107.47L7098.23-2107.47Z"/>
</clipPath>
<g clip-path="url(#ClipPath_4)">
<path d="M7350.04-1340.44C7291.77-1340.44 7240.58-1361.66 7196.46-1404.08C7149.51-1448.77 7126.03-1506.75 7126.03-1578.02C7126.03-1645.34 7146.68-1701.62 7187.97-1746.87C7230.4-1792.69 7282.72-1815.6 7344.94-1815.6C7406.6-1815.6 7458.64-1792.69 7501.07-1746.87C7542.93-1701.62 7563.86-1645.62 7563.86-1578.87C7563.86-1508.73 7541.23-1450.75 7495.98-1404.93C7454.12-1361.94 7405.47-1340.44 7350.04-1340.44ZM7344.1-1396.44C7384.82-1396.44 7421.03-1413.41 7452.7-1447.35C7483.25-1481.86 7498.52-1525.7 7498.52-1578.87C7498.52-1633.74 7482.12-1678.43 7449.31-1712.93C7419.33-1744.61 7384.54-1760.45 7344.94-1760.45C7304.22-1760.45 7269.43-1744.05 7240.58-1711.24C7208.9-1675.04 7193.06-1630.63 7193.06-1578.02C7193.06-1524.85 7208.62-1480.45 7239.73-1444.81C7268.58-1412.57 7303.37-1396.44 7344.1-1396.44Z" fill="#141414" fill-opacity="0.420385" fill-rule="nonzero" opacity="1" stroke="none"/>
</g>
</g>
<g opacity="1">
<clipPath id="ClipPath_5">
<path d="M7098.23-2107.47L9186.97-2107.47L9186.97-2107.47L9186.97-1125.25L9186.97-1125.25L7098.23-1125.25L7098.23-1125.25L7098.23-2107.47L7098.23-2107.47Z"/>
</clipPath>
<g clip-path="url(#ClipPath_5)">
<path d="M7949.93-2016.7L8015.26-2016.7L8015.26-1351.47L7956.71-1351.47L7950.77-1425.29C7942.85-1413.98 7934.93-1403.94 7927.02-1395.17C7919.1-1386.4 7911.18-1378.91 7903.26-1372.69C7874.97-1351.19 7842.17-1340.44 7804.83-1340.44C7746.57-1340.44 7698.2-1363.07 7659.74-1408.32C7621.84-1453.58 7602.89-1508.45 7602.89-1572.93C7602.89-1639.68 7622.97-1696.53 7663.13-1743.48C7703.86-1791.56 7754.77-1815.6 7815.86-1815.6C7841.32-1815.6 7865.08-1811.08 7887.14-1802.03C7895.06-1798.63 7904.25-1794.11 7914.71-1788.45C7925.18-1782.79 7936.91-1776.01 7949.93-1768.09L7949.93-2016.7ZM7949.93-1571.24L7949.93-1701.9C7923.34-1725.1 7900.15-1740.65 7880.35-1748.57C7860.55-1756.49 7841.32-1760.45 7822.65-1760.45C7776.27-1760.45 7738.65-1740.94 7709.8-1701.9C7682.65-1665.14 7669.07-1622.43 7669.07-1573.78C7669.07-1521.74 7684.06-1478.47 7714.04-1443.96C7741.76-1412.28 7774.57-1396.44 7812.47-1396.44C7849.8-1396.44 7882.05-1412.85 7909.2-1445.66C7936.35-1478.47 7949.93-1520.33 7949.93-1571.24Z" fill="#141414" fill-opacity="0.420385" fill-rule="nonzero" opacity="1" stroke="none"/>
</g>
</g>
<g opacity="1">
<clipPath id="ClipPath_6">
<path d="M7098.23-2107.47L9186.97-2107.47L9186.97-2107.47L9186.97-1125.25L9186.97-1125.25L7098.23-1125.25L7098.23-1125.25L7098.23-2107.47L7098.23-2107.47Z"/>
</clipPath>
<g clip-path="url(#ClipPath_6)">
<path d="M8489.57-1596.69L8144.23-1596.69C8144.23-1531.64 8159.36-1482 8189.63-1447.78C8219.89-1413.56 8259.63-1396.44 8308.84-1396.44C8346.17-1396.44 8382.09-1408.32 8416.6-1432.08C8426.22-1438.3 8436.4-1446.08 8447.15-1455.42C8457.89-1464.75 8469.49-1475.64 8481.93-1488.08L8481.93-1414.26C8468.36-1404.08 8455.77-1395.17 8444.18-1387.54C8432.58-1379.9 8421.69-1373.53 8411.51-1368.44C8375.87-1349.78 8340.24-1340.44 8304.6-1340.44C8242.94-1340.44 8190.62-1361.66 8147.63-1404.08C8101.24-1448.77 8078.05-1506.75 8078.05-1578.02C8078.05-1645.34 8098.98-1701.62 8140.84-1746.87C8183.26-1792.69 8235.59-1815.6 8297.81-1815.6C8358.34-1815.6 8406.42-1793.54 8442.06-1749.42C8473.73-1709.26 8489.57-1658.35 8489.57-1596.69ZM8152.72-1648.45L8418.3-1648.45C8411.51-1686.91 8396.94-1715.62 8374.6-1734.57C8352.26-1753.52 8325.24-1763 8293.57-1763C8258.5-1763 8228.8-1751.97 8204.48-1729.9C8181.85-1709.54 8164.6-1682.39 8152.72-1648.45Z" fill="#141414" fill-opacity="0.420385" fill-rule="nonzero" opacity="1" stroke="none"/>
</g>
</g>
</g>
</g>
</g>
</svg>
