<?xml version="1.0" encoding="UTF-8" standalone="no"?>
<!DOCTYPE svg PUBLIC "-//W3C//DTD SVG 1.1//EN" "http://www.w3.org/Graphics/SVG/1.1/DTD/svg11.dtd">
<!-- Created with Vectornator (http://vectornator.io/) -->
<svg height="4320.0pt" stroke-miterlimit="10" style="fill-rule:nonzero;clip-rule:evenodd;stroke-linecap:round;stroke-linejoin:round;" version="1.1" viewBox="0 0 7680 4320" width="7680.0pt" xml:space="preserve" xmlns="http://www.w3.org/2000/svg" xmlns:vectornator="http://vectornator.io" xmlns:xlink="http://www.w3.org/1999/xlink">
<defs>
<linearGradient gradientTransform="matrix(0.763654 0.00518209 -0.00482625 0.819958 -761.199 120.492)" gradientUnits="userSpaceOnUse" id="LinearGradient" x1="2783.09" x2="4695.03" y1="2344.25" y2="2344.25">
<stop offset="0" stop-color="#070731"/>
<stop offset="0.0900603" stop-color="#000000"/>
</linearGradient>
<linearGradient gradientTransform="matrix(1.43078 0 0 1.53627 -560.522 -759.13)" gradientUnits="userSpaceOnUse" id="LinearGradient_2" x1="2453.25" x2="3836.95" y1="2039.07" y2="1979.98">
<stop offset="0" stop-color="#070731"/>
<stop offset="0.0900603" stop-color="#000000"/>
</linearGradient>
<linearGradient gradientTransform="matrix(1.43078 0 0 1.53627 -560.522 -759.13)" gradientUnits="userSpaceOnUse" id="LinearGradient_3" x1="2453.25" x2="3836.95" y1="2039.07" y2="1979.98">
<stop offset="0" stop-color="#070731"/>
<stop offset="0.0900603" stop-color="#000000"/>
</linearGradient>
<linearGradient gradientTransform="matrix(1.43078 0 0 1.53627 -560.522 -759.13)" gradientUnits="userSpaceOnUse" id="LinearGradient_4" x1="2453.25" x2="3836.95" y1="2039.07" y2="1979.98">
<stop offset="0" stop-color="#070731"/>
<stop offset="0.0900603" stop-color="#000000"/>
</linearGradient>
</defs>
<path d="M0 0L7680 0L7680 4320L0 4320L0 0Z" fill="#ffffff" fill-rule="nonzero" opacity="1" stroke="none"/>
<clipPath id="ArtboardFrame">
<rect height="4320" width="7680" x="0" y="0"/>
</clipPath>
<g clip-path="url(#ArtboardFrame)" id="Layer-1" vectornator:layerName="Layer 1">
<g opacity="1" vectornator:layerName="g">
<path d="M1160.32 1043.16L1615.58 1887.48L2070.85 2731.82L1162.22 2733L253.59 2734.17L706.962 1888.67L1160.32 1043.16Z" fill="#141414" fill-opacity="0.420385" fill-rule="nonzero" opacity="1" stroke="none" vectornator:layerName="path"/>
<path d="M2078.97 2718.48L1717.82 2059.58L1356.66 1400.67L2086.7 1405.63L2816.73 1410.58L2447.85 2064.54L2078.97 2718.48Z" fill="url(#LinearGradient)" fill-rule="nonzero" opacity="1" stroke="#141414" stroke-linecap="round" stroke-linejoin="round" stroke-width="19" vectornator:layerName="path"/>
<g opacity="1" vectornator:layerName="g">
<g opacity="1" vectornator:layerName="g">
<g opacity="1" vectornator:layerName="path">
<clipPath id="ClipPath">
<path d="M2965.86 1488.5L4924.54 1488.5L4924.54 1488.5L4924.54 2974.48L4924.54 2974.48L2965.86 2974.48L2965.86 2974.48L2965.86 1488.5L2965.86 1488.5Z"/>
</clipPath>
<g clip-path="url(#ClipPath)">
<path d="M2999.57 1627.94L3734.06 1627.94L3734.06 1717.89L3414.77 1717.89L3414.77 2649.92L3320.08 2649.92L3320.08 1717.89L2999.57 1717.89L2999.57 1627.94Z" fill="url(#LinearGradient_2)" fill-rule="nonzero" opacity="1" stroke="none" vectornator:layerName="path"/>
</g>
</g>
<g opacity="1" vectornator:layerName="path">
<clipPath id="ClipPath_2">
<path d="M2965.86 1488.5L4924.54 1488.5L4924.54 1488.5L4924.54 2974.48L4924.54 2974.48L2965.86 2974.48L2965.86 2974.48L2965.86 1488.5L2965.86 1488.5Z"/>
</clipPath>
<g clip-path="url(#ClipPath_2)">
<path d="M4395.7 2273.19L3901.59 2273.19C3901.59 2373.13 3923.25 2449.39 3966.53 2501.96C4009.85 2554.55 4066.69 2580.83 4137.12 2580.83C4190.53 2580.83 4241.92 2562.58 4291.3 2526.08C4305.05 2516.52 4319.62 2504.57 4334.99 2490.24C4350.37 2475.89 4366.97 2459.16 4384.77 2440.05L4384.77 2553.46C4365.35 2569.1 4347.34 2582.78 4330.74 2594.52C4314.16 2606.24 4298.58 2616.03 4284.02 2623.85C4233.02 2652.53 4182.03 2666.86 4131.05 2666.86C4042.83 2666.86 3967.95 2634.28 3906.45 2569.1C3840.09 2500.44 3806.9 2411.37 3806.9 2301.88C3806.9 2198.45 3836.86 2111.99 3896.73 2042.48C3957.44 1972.09 4032.3 1936.89 4121.33 1936.89C4207.93 1936.89 4276.73 1970.78 4327.71 2038.56C4373.03 2100.26 4395.7 2178.47 4395.7 2273.19ZM3913.73 2193.68L4293.71 2193.68C4284.02 2134.59 4263.16 2090.49 4231.2 2061.37C4199.23 2032.26 4160.58 2017.71 4115.25 2017.71C4065.08 2017.71 4022.59 2034.66 3987.79 2068.55C3955.42 2099.83 3930.72 2141.54 3913.73 2193.68Z" fill="url(#LinearGradient_3)" fill-rule="nonzero" opacity="1" stroke="none" vectornator:layerName="path"/>
</g>
</g>
<g opacity="1" vectornator:layerName="path">
<clipPath id="ClipPath_3">
<path d="M2965.86 1488.5L4924.54 1488.5L4924.54 1488.5L4924.54 2974.48L4924.54 2974.48L2965.86 2974.48L2965.86 2974.48L2965.86 1488.5L2965.86 1488.5Z"/>
</clipPath>
<g clip-path="url(#ClipPath_3)">
<path d="M4568.09 1746.58L4648.21 1746.58L4648.21 1951.22L4819.38 1951.22L4819.38 2035.95L4648.21 2035.95L4648.21 2479.15C4648.21 2515.65 4654.48 2541.72 4667.04 2557.36C4679.58 2573.01 4701.23 2580.83 4731.98 2580.83C4749.79 2580.83 4764.96 2578.65 4777.5 2574.32C4790.05 2569.97 4804.02 2564.32 4819.38 2557.36L4819.38 2642.1C4806.44 2646.45 4790.86 2650.56 4772.65 2654.48C4754.44 2658.38 4736.03 2660.35 4717.41 2660.35C4668.85 2660.35 4631.22 2648.61 4604.51 2625.15C4574.56 2600.82 4559.6 2561.71 4559.6 2507.83L4559.6 2035.95L4450.32 2035.95L4450.32 1951.22L4559.6 1951.22L4568.09 1746.58Z" fill="url(#LinearGradient_4)" fill-rule="nonzero" opacity="1" stroke="none" vectornator:layerName="path"/>
</g>
</g>
</g>
<g opacity="1" vectornator:layerName="g">
<g opacity="1" vectornator:layerName="path">
<clipPath id="ClipPath_4">
<path d="M4863.62 1477.01L7852.15 1477.01L7852.15 1477.01L7852.15 2985.97L7852.15 2985.97L4863.62 2985.97L4863.62 2985.97L4863.62 1477.01L4863.62 1477.01Z"/>
</clipPath>
<g clip-path="url(#ClipPath_4)">
<path d="M5223.91 2655.37C5140.54 2655.37 5067.3 2622.77 5004.17 2557.6C4936.99 2488.95 4903.4 2399.88 4903.4 2290.39C4903.4 2186.96 4932.94 2100.5 4992.03 2030.99C5052.73 1960.59 5127.59 1925.4 5216.61 1925.4C5304.83 1925.4 5379.29 1960.59 5440 2030.99C5499.89 2100.5 5529.83 2186.53 5529.83 2289.08C5529.83 2396.83 5497.46 2485.91 5432.71 2556.3C5372.82 2622.34 5303.21 2655.37 5223.91 2655.37ZM5215.41 2569.34C5273.67 2569.34 5325.48 2543.27 5370.79 2491.13C5414.51 2438.11 5436.35 2370.76 5436.35 2289.08C5436.35 2204.78 5412.89 2136.13 5365.94 2083.13C5323.05 2034.46 5273.27 2010.12 5216.61 2010.12C5158.35 2010.12 5108.57 2035.32 5067.3 2085.72C5021.97 2141.34 4999.3 2209.56 4999.3 2290.39C4999.3 2372.07 5021.57 2440.28 5066.08 2495.03C5107.35 2544.56 5157.13 2569.34 5215.41 2569.34Z" fill="#141414" fill-opacity="0.420385" fill-rule="nonzero" opacity="1" stroke="none" vectornator:layerName="path"/>
</g>
</g>
<g opacity="1" vectornator:layerName="path">
<clipPath id="ClipPath_5">
<path d="M4863.62 1477.01L7852.15 1477.01L7852.15 1477.01L7852.15 2985.97L7852.15 2985.97L4863.62 2985.97L4863.62 2985.97L4863.62 1477.01L4863.62 1477.01Z"/>
</clipPath>
<g clip-path="url(#ClipPath_5)">
<path d="M6082.22 1616.45L6175.69 1616.45L6175.69 2638.43L6091.92 2638.43L6083.42 2525.02C6072.09 2542.4 6060.76 2557.82 6049.44 2571.29C6038.11 2584.77 6026.77 2596.27 6015.45 2605.83C5974.96 2638.86 5928.03 2655.37 5874.61 2655.37C5791.26 2655.37 5722.05 2620.61 5667.02 2551.09C5612.8 2481.56 5585.68 2397.26 5585.68 2298.21C5585.68 2195.66 5614.41 2108.32 5671.87 2036.19C5730.14 1962.33 5802.98 1925.4 5890.39 1925.4C5926.82 1925.4 5960.82 1932.34 5992.38 1946.25C6003.71 1951.47 6016.86 1958.41 6031.83 1967.11C6046.81 1975.8 6063.59 1986.22 6082.22 1998.39L6082.22 1616.45ZM6082.22 2300.8L6082.22 2100.07C6044.17 2064.43 6011 2040.54 5982.67 2028.37C5954.33 2016.21 5926.82 2010.12 5900.11 2010.12C5833.75 2010.12 5779.92 2040.1 5738.65 2100.07C5699.8 2156.55 5680.37 2222.16 5680.37 2296.9C5680.37 2376.85 5701.81 2443.32 5744.71 2496.34C5784.38 2545.01 5831.31 2569.34 5885.55 2569.34C5938.96 2569.34 5985.1 2544.13 6023.94 2493.73C6062.79 2443.32 6082.22 2379.01 6082.22 2300.8Z" fill="#141414" fill-opacity="0.420385" fill-rule="nonzero" opacity="1" stroke="none" vectornator:layerName="path"/>
</g>
</g>
<g opacity="1" vectornator:layerName="path">
<clipPath id="ClipPath_6">
<path d="M4863.62 1477.01L7852.15 1477.01L7852.15 1477.01L7852.15 2985.97L7852.15 2985.97L4863.62 2985.97L4863.62 2985.97L4863.62 1477.01L4863.62 1477.01Z"/>
</clipPath>
<g clip-path="url(#ClipPath_6)">
<path d="M6854.33 2261.7L6360.22 2261.7C6360.22 2361.64 6381.86 2437.9 6425.18 2490.47C6468.47 2543.04 6525.33 2569.34 6595.74 2569.34C6649.16 2569.34 6700.55 2551.09 6749.93 2514.59C6763.68 2505.03 6778.25 2493.08 6793.63 2478.73C6809 2464.4 6825.6 2447.67 6843.39 2428.56L6843.39 2541.97C6823.98 2557.6 6805.96 2571.29 6789.39 2583.01C6772.78 2594.75 6757.2 2604.54 6742.64 2612.36C6691.64 2641.02 6640.67 2655.37 6589.67 2655.37C6501.46 2655.37 6426.59 2622.77 6365.08 2557.6C6298.71 2488.95 6265.53 2399.88 6265.53 2290.39C6265.53 2186.96 6295.47 2100.5 6355.37 2030.99C6416.06 1960.59 6490.93 1925.4 6579.96 1925.4C6666.56 1925.4 6735.36 1959.29 6786.35 2027.07C6831.66 2088.77 6854.33 2166.98 6854.33 2261.7ZM6372.36 2182.19L6752.36 2182.19C6742.64 2123.1 6721.79 2078.99 6689.83 2049.88C6657.86 2020.77 6619.2 2006.21 6573.89 2006.21C6523.71 2006.21 6481.22 2023.15 6446.42 2057.06C6414.05 2088.33 6389.36 2130.04 6372.36 2182.19Z" fill="#141414" fill-opacity="0.420385" fill-rule="nonzero" opacity="1" stroke="none" vectornator:layerName="path"/>
</g>
</g>
</g>
</g>
</g>
</g>
</svg>
