<?xml version="1.0" encoding="UTF-8" standalone="no"?>
<!DOCTYPE svg PUBLIC "-//W3C//DTD SVG 1.1//EN" "http://www.w3.org/Graphics/SVG/1.1/DTD/svg11.dtd">
<!-- Created with Vectornator (http://vectornator.io/) -->
<svg height="100%" stroke-miterlimit="10" style="fill-rule:nonzero;clip-rule:evenodd;stroke-linecap:round;stroke-linejoin:round;" version="1.1" viewBox="0 0 7680 4320" width="100%" xml:space="preserve" xmlns="http://www.w3.org/2000/svg" xmlns:vectornator="http://vectornator.io" xmlns:xlink="http://www.w3.org/1999/xlink">
<defs>
<linearGradient gradientTransform="matrix(0.819958 0.00518209 -0.00518209 0.819958 -836.019 120.492)" gradientUnits="userSpaceOnUse" id="LinearGradient" x1="2783.09" x2="4695.03" y1="2344.25" y2="2344.25">
<stop offset="0" stop-color="#070731"/>
<stop offset="0.0900603" stop-color="#000000"/>
</linearGradient>
<linearGradient gradientTransform="matrix(1.53627 0 0 1.53627 -620.546 -759.13)" gradientUnits="userSpaceOnUse" id="LinearGradient_2" x1="2453.25" x2="3836.95" y1="2039.07" y2="1979.98">
<stop offset="0" stop-color="#070731"/>
<stop offset="0.0900603" stop-color="#000000"/>
</linearGradient>
<linearGradient gradientTransform="matrix(1.53627 0 0 1.53627 -620.546 -759.13)" gradientUnits="userSpaceOnUse" id="LinearGradient_3" x1="2453.25" x2="3836.95" y1="2039.07" y2="1979.98">
<stop offset="0" stop-color="#070731"/>
<stop offset="0.0900603" stop-color="#000000"/>
</linearGradient>
<linearGradient gradientTransform="matrix(1.53627 0 0 1.53627 -620.546 -759.13)" gradientUnits="userSpaceOnUse" id="LinearGradient_4" x1="2453.25" x2="3836.95" y1="2039.07" y2="1979.98">
<stop offset="0" stop-color="#070731"/>
<stop offset="0.0900603" stop-color="#000000"/>
</linearGradient>
</defs>
<clipPath id="ArtboardFrame">
<rect height="4320" width="7680" x="0" y="0"/>
</clipPath>
<g clip-path="url(#ArtboardFrame)" id="Layer-1" vectornator:layerName="Layer 1">
<g opacity="1">
<path d="M1227.17 1043.16L1716 1887.48L2204.84 2731.82L1229.21 2733L253.59 2734.17L740.389 1888.67L1227.17 1043.16Z" fill="#141414" fill-opacity="0.420385" fill-rule="nonzero" opacity="1" stroke="none"/>
<path d="M2213.55 2718.48L1825.78 2059.58L1437.99 1400.67L2221.85 1405.63L3005.71 1410.58L2609.63 2064.54L2213.55 2718.48Z" fill="url(#LinearGradient)" fill-rule="nonzero" opacity="1" stroke="#141414" stroke-linecap="round" stroke-linejoin="round" stroke-width="19"/>
<g opacity="1">
<g opacity="1">
<g opacity="1">
<clipPath id="ClipPath">
<path d="M3165.84 1488.5L5268.93 1488.5L5268.93 1488.5L5268.93 2974.48L5268.93 2974.48L3165.84 2974.48L3165.84 2974.48L3165.84 1488.5L3165.84 1488.5Z"/>
</clipPath>
<g clip-path="url(#ClipPath)">
<path d="M3202.03 1627.94L3990.68 1627.94L3990.68 1717.89L3647.84 1717.89L3647.84 2649.92L3546.17 2649.92L3546.17 1717.89L3202.03 1717.89L3202.03 1627.94Z" fill="url(#LinearGradient_2)" fill-rule="nonzero" opacity="1" stroke="none"/>
</g>
</g>
<g opacity="1">
<clipPath id="ClipPath_2">
<path d="M3165.84 1488.5L5268.93 1488.5L5268.93 1488.5L5268.93 2974.48L5268.93 2974.48L3165.84 2974.48L3165.84 2974.48L3165.84 1488.5L3165.84 1488.5Z"/>
</clipPath>
<g clip-path="url(#ClipPath_2)">
<path d="M4701.1 2273.19L4170.56 2273.19C4170.56 2373.13 4193.81 2449.39 4240.29 2501.96C4286.8 2554.55 4347.83 2580.83 4423.45 2580.83C4480.8 2580.83 4535.98 2562.58 4589 2526.08C4603.76 2516.52 4619.41 2504.57 4635.91 2490.24C4652.43 2475.89 4670.25 2459.16 4689.36 2440.05L4689.36 2553.46C4668.51 2569.1 4649.17 2582.78 4631.35 2594.52C4613.55 2606.24 4596.82 2616.03 4581.18 2623.85C4526.42 2652.53 4471.67 2666.86 4416.93 2666.86C4322.21 2666.86 4241.81 2634.28 4175.77 2569.1C4104.52 2500.44 4068.89 2411.37 4068.89 2301.88C4068.89 2198.45 4101.05 2111.99 4165.34 2042.48C4230.52 1972.09 4310.9 1936.89 4406.5 1936.89C4499.48 1936.89 4573.36 1970.78 4628.09 2038.56C4676.76 2100.26 4701.1 2178.47 4701.1 2273.19ZM4183.59 2193.68L4591.59 2193.68C4581.18 2134.59 4558.79 2090.49 4524.47 2061.37C4490.14 2032.26 4448.64 2017.71 4399.97 2017.71C4346.1 2017.71 4300.48 2034.66 4263.11 2068.55C4228.36 2099.83 4201.84 2141.54 4183.59 2193.68Z" fill="url(#LinearGradient_3)" fill-rule="nonzero" opacity="1" stroke="none"/>
</g>
</g>
<g opacity="1">
<clipPath id="ClipPath_3">
<path d="M3165.84 1488.5L5268.93 1488.5L5268.93 1488.5L5268.93 2974.48L5268.93 2974.48L3165.84 2974.48L3165.84 2974.48L3165.84 1488.5L3165.84 1488.5Z"/>
</clipPath>
<g clip-path="url(#ClipPath_3)">
<path d="M4886.2 1746.58L4972.23 1746.58L4972.23 1951.22L5156.02 1951.22L5156.02 2035.95L4972.23 2035.95L4972.23 2479.15C4972.23 2515.65 4978.96 2541.72 4992.44 2557.36C5005.91 2573.01 5029.15 2580.83 5062.17 2580.83C5081.29 2580.83 5097.58 2578.65 5111.05 2574.32C5124.52 2569.97 5139.52 2564.32 5156.02 2557.36L5156.02 2642.1C5142.12 2646.45 5125.39 2650.56 5105.84 2654.48C5086.29 2658.38 5066.52 2660.35 5046.53 2660.35C4994.39 2660.35 4953.98 2648.61 4925.3 2625.15C4893.15 2600.82 4877.08 2561.71 4877.08 2507.83L4877.08 2035.95L4759.75 2035.95L4759.75 1951.22L4877.08 1951.22L4886.2 1746.58Z" fill="url(#LinearGradient_4)" fill-rule="nonzero" opacity="1" stroke="none"/>
</g>
</g>
</g>
<g opacity="1">
<g opacity="1">
<clipPath id="ClipPath_4">
<path d="M5203.52 1477.01L8412.39 1477.01L8412.39 1477.01L8412.39 2985.97L8412.39 2985.97L5203.52 2985.97L5203.52 2985.97L5203.52 1477.01L5203.52 1477.01Z"/>
</clipPath>
<g clip-path="url(#ClipPath_4)">
<path d="M5590.37 2655.37C5500.85 2655.37 5422.21 2622.77 5354.43 2557.6C5282.3 2488.95 5246.23 2399.88 5246.23 2290.39C5246.23 2186.96 5277.95 2100.5 5341.39 2030.99C5406.57 1960.59 5486.95 1925.4 5582.53 1925.4C5677.26 1925.4 5757.21 1960.59 5822.39 2030.99C5886.7 2100.5 5918.85 2186.53 5918.85 2289.08C5918.85 2396.83 5884.09 2485.91 5814.57 2556.3C5750.26 2622.34 5675.52 2655.37 5590.37 2655.37ZM5581.24 2569.34C5643.8 2569.34 5699.43 2543.27 5748.08 2491.13C5795.02 2438.11 5818.47 2370.76 5818.47 2289.08C5818.47 2204.78 5793.28 2136.13 5742.87 2083.13C5696.82 2034.46 5643.37 2010.12 5582.53 2010.12C5519.98 2010.12 5466.53 2035.32 5422.21 2085.72C5373.54 2141.34 5349.2 2209.56 5349.2 2290.39C5349.2 2372.07 5373.11 2440.28 5420.9 2495.03C5465.22 2544.56 5518.67 2569.34 5581.24 2569.34Z" fill="#141414" fill-opacity="0.420385" fill-rule="nonzero" opacity="1" stroke="none"/>
</g>
</g>
<g opacity="1">
<clipPath id="ClipPath_5">
<path d="M5203.52 1477.01L8412.39 1477.01L8412.39 1477.01L8412.39 2985.97L8412.39 2985.97L5203.52 2985.97L5203.52 2985.97L5203.52 1477.01L5203.52 1477.01Z"/>
</clipPath>
<g clip-path="url(#ClipPath_5)">
<path d="M6511.96 1616.45L6612.33 1616.45L6612.33 2638.43L6522.38 2638.43L6513.25 2525.02C6501.09 2542.4 6488.92 2557.82 6476.77 2571.29C6464.6 2584.77 6452.43 2596.27 6440.27 2605.83C6396.8 2638.86 6346.41 2655.37 6289.05 2655.37C6199.55 2655.37 6125.24 2620.61 6066.15 2551.09C6007.93 2481.56 5978.82 2397.26 5978.82 2298.21C5978.82 2195.66 6009.66 2108.32 6071.36 2036.19C6133.93 1962.33 6212.14 1925.4 6305.99 1925.4C6345.11 1925.4 6381.61 1932.34 6415.5 1946.25C6427.67 1951.47 6441.79 1958.41 6457.86 1967.11C6473.94 1975.8 6491.96 1986.22 6511.96 1998.39L6511.96 1616.45ZM6511.96 2300.8L6511.96 2100.07C6471.11 2064.43 6435.49 2040.54 6405.07 2028.37C6374.65 2016.21 6345.11 2010.12 6316.43 2010.12C6245.17 2010.12 6187.38 2040.1 6143.06 2100.07C6101.35 2156.55 6080.49 2222.16 6080.49 2296.9C6080.49 2376.85 6103.51 2443.32 6149.57 2496.34C6192.16 2545.01 6242.56 2569.34 6300.79 2569.34C6358.14 2569.34 6407.68 2544.13 6449.39 2493.73C6491.1 2443.32 6511.96 2379.01 6511.96 2300.8Z" fill="#141414" fill-opacity="0.420385" fill-rule="nonzero" opacity="1" stroke="none"/>
</g>
</g>
<g opacity="1">
<clipPath id="ClipPath_6">
<path d="M5203.52 1477.01L8412.39 1477.01L8412.39 1477.01L8412.39 2985.97L8412.39 2985.97L5203.52 2985.97L5203.52 2985.97L5203.52 1477.01L5203.52 1477.01Z"/>
</clipPath>
<g clip-path="url(#ClipPath_6)">
<path d="M7341 2261.7L6810.46 2261.7C6810.46 2361.64 6833.7 2437.9 6880.21 2490.47C6926.69 2543.04 6987.75 2569.34 7063.35 2569.34C7120.7 2569.34 7175.88 2551.09 7228.9 2514.59C7243.67 2505.03 7259.31 2493.08 7275.83 2478.73C7292.33 2464.4 7310.15 2447.67 7329.26 2428.56L7329.26 2541.97C7308.41 2557.6 7289.07 2571.29 7271.27 2583.01C7253.44 2594.75 7236.71 2604.54 7221.08 2612.36C7166.32 2641.02 7111.59 2655.37 7056.83 2655.37C6962.11 2655.37 6881.73 2622.77 6815.68 2557.6C6744.42 2488.95 6708.79 2399.88 6708.79 2290.39C6708.79 2186.96 6740.94 2100.5 6805.25 2030.99C6870.42 1960.59 6950.81 1925.4 7046.4 1925.4C7139.39 1925.4 7213.26 1959.29 7268.01 2027.07C7316.66 2088.77 7341 2166.98 7341 2261.7ZM6823.5 2182.19L7231.51 2182.19C7221.08 2123.1 7198.69 2078.99 7164.37 2049.88C7130.05 2020.77 7088.54 2006.21 7039.89 2006.21C6986.01 2006.21 6940.38 2023.15 6903.02 2057.06C6868.26 2088.33 6841.75 2130.04 6823.5 2182.19Z" fill="#141414" fill-opacity="0.420385" fill-rule="nonzero" opacity="1" stroke="none"/>
</g>
</g>
</g>
</g>
</g>
</g>
</svg>
